<?xml version="1.0" encoding="UTF-8" standalone="no"?>
<!-- Created with Inkscape (http://www.inkscape.org/) -->

<svg
   version="1.1"
   id="svg1"
   width="8000"
   height="8000"
   viewBox="0 0 8000 8000"
   sodipodi:docname="154661305_3bb5a80e-9bbc-4e80-820e-146a4ca1f955.jpg"
   inkscape:export-filename="..\..\projects\map\logo.svg"
   inkscape:export-xdpi="96"
   inkscape:export-ydpi="96"
   xmlns:inkscape="http://www.inkscape.org/namespaces/inkscape"
   xmlns:sodipodi="http://sodipodi.sourceforge.net/DTD/sodipodi-0.dtd"
   xmlns="http://www.w3.org/2000/svg"
   xmlns:svg="http://www.w3.org/2000/svg">
  <defs
     id="defs1" />
  <sodipodi:namedview
     id="namedview1"
     pagecolor="#505050"
     bordercolor="#eeeeee"
     borderopacity="1"
     inkscape:showpageshadow="0"
     inkscape:pageopacity="0"
     inkscape:pagecheckerboard="0"
     inkscape:deskcolor="#505050" />
  <g
     inkscape:groupmode="layer"
     inkscape:label="Image"
     id="g1">
    <path
       style="fill:#f9f9f9;stroke-width:1.10982"
       d="m 3950.0629,7789.3272 c -487.0947,-4.9215 -958.6739,-85.3633 -1346.2075,-229.6354 -14.3444,-5.3402 -29.0772,-10.8294 -32.7396,-12.1981 -39.5922,-14.7969 -127.249,-52.169 -167.9982,-71.6251 -7.5534,-3.6066 -13.9327,-6.5574 -14.1763,-6.5574 -0.565,0 -73.0078,-36.3479 -82.2303,-41.2589 -3.8102,-2.0287 -6.9315,-4.005 -6.9364,-4.3916 0,-0.3867 14.599,-8.6942 32.4532,-18.4613 17.8541,-9.7669 58.6815,-32.1066 90.7275,-49.6437 78.9852,-43.2246 147.8154,-80.8739 182.5648,-99.861 15.8704,-8.6717 44.8366,-24.5126 64.3694,-35.2022 19.5327,-10.6896 59.9855,-32.8237 89.8951,-49.1868 29.9096,-16.3633 69.863,-38.2234 88.7853,-48.5783 18.9224,-10.355 50.136,-27.4311 69.3636,-37.9471 19.2275,-10.516 48.1938,-26.3655 64.3693,-35.2213 16.1756,-8.8556 51.1348,-27.9802 77.6872,-42.499 102.6262,-56.1156 176.8292,-96.7158 198.6572,-108.6954 28.0336,-15.3854 54.8016,-30.0334 130.4034,-71.3595 32.3512,-17.6842 72.0549,-39.3954 88.2304,-48.2472 16.1756,-8.8517 53.8816,-29.4791 83.7912,-45.8385 29.9095,-16.3595 69.8629,-38.2192 88.7853,-48.577 64.4672,-35.2887 129.5841,-70.9126 210.3103,-115.0558 31.4355,-17.1899 57.6234,-31.347 58.1954,-31.4603 0.5719,-0.1134 3.0941,3.5395 5.6047,8.1175 2.5107,4.578 12.3486,22.557 21.8618,39.9534 9.5134,17.3964 33.0091,60.3463 52.2127,95.4442 62.7491,114.6854 100.5195,183.7286 135.6936,248.044 19.0281,34.7928 43.3521,79.2409 54.0532,98.7737 10.701,19.5328 28.1901,51.4955 38.8644,71.0283 10.6743,19.5327 26.7892,48.9984 35.8108,65.4791 9.0215,16.4808 26.6419,48.6932 39.1564,71.5832 12.5147,22.89 37.107,67.8376 54.6497,99.8835 31.4252,57.4053 59.3175,108.3935 122.0289,223.0731 17.524,32.046 48.4724,88.6393 68.774,125.763 20.3018,37.1237 36.7309,67.679 36.5091,67.9007 -0.2217,0.2218 -15.1283,2.1727 -33.1258,4.3354 -191.2714,22.9844 -399.9175,34.1473 -600.3938,32.1218 z m 889.4094,-90.5837 c -6.4901,-11.9521 -16.664,-30.558 -81.459,-148.9706 -16.0324,-29.2992 -37.7544,-69.0028 -48.2713,-88.2304 -10.5167,-19.2276 -33.7367,-61.6781 -51.5999,-94.3344 -57.6474,-105.3875 -61.3252,-112.1923 -60.8792,-112.6383 0.5826,-0.5827 9.328,-5.4051 65.8572,-36.3163 26.2471,-14.3524 63.9532,-34.9741 83.7911,-45.8261 142.0922,-77.7287 204.9595,-112.1293 228.6223,-125.1008 9.4611,-5.1864 47.1672,-25.8119 83.7911,-45.8345 67.5706,-36.9414 93.8786,-51.334 157.594,-86.2173 19.5327,-10.694 54.492,-29.8167 77.6871,-42.4949 52.4192,-28.6517 204.7313,-111.9669 259.6971,-142.055 105.7227,-57.8721 201.7735,-110.4266 311.3036,-170.3305 85.6785,-46.859 180.9893,-99.0017 240.8302,-131.7533 28.9939,-15.8688 66.2005,-36.2149 82.6813,-45.2136 16.4808,-8.9987 32.054,-17.5669 34.6071,-19.0403 l 4.6421,-2.6791 8.857,16.9278 c 30.809,58.8828 52.0225,119.7132 62.9899,180.6257 14.7308,81.814 11.2465,166.4312 -10.1829,247.294 -105.8989,399.6034 -642.1178,741.6188 -1407.0831,897.4769 -19.4865,3.9703 -35.7176,7.2086 -36.069,7.1964 -0.3516,-0.012 -3.6846,-5.6308 -7.4067,-12.4854 z M 2040.9629,7258.2728 c -84.9333,-66.2334 -157.3007,-138.8281 -212.2448,-212.9115 -114.7245,-154.6877 -158.7103,-320.5323 -128.9251,-486.0997 30.6991,-170.6475 139.9511,-334.6711 320.8652,-481.7253 175.2988,-142.49 412.2271,-263.8999 697.5083,-357.4262 39.413,-12.9212 44.2884,-14.4574 74.9126,-23.6048 157.0611,-46.9138 312.2942,-82.1008 487.2095,-110.437 32.1302,-5.2052 103.915,-15.6533 107.5468,-15.6533 1.7102,0 3.1736,1.2815 4.7522,4.1618 21.2177,38.7125 44.4973,81.2528 93.0737,170.0794 32.2124,58.9035 75.6431,138.3109 96.5126,176.4608 20.8696,38.15 48.3254,88.3414 61.013,111.5366 12.6875,23.1952 39.0553,71.389 58.5952,107.0973 19.5397,35.7084 39.8941,72.915 45.2319,82.6813 5.3377,9.7664 19.2416,35.2004 30.8976,56.52 11.6561,21.3195 21.0732,38.8594 20.927,38.9773 -0.3896,0.3145 -60.3082,33.1107 -213.3504,116.7768 -42.4688,23.2172 -157.8746,86.3583 -240.5528,131.6119 -28.0226,15.3383 -48.8642,26.7435 -118.4729,64.8331 -16.1756,8.8512 -42.395,23.1888 -58.2654,31.8615 -15.8704,8.6725 -44.8366,24.5186 -64.3694,35.2134 -19.5327,10.6947 -48.9984,26.8173 -65.4791,35.8281 -63.0789,34.4877 -150.9845,82.5719 -178.1256,97.434 -43.4192,23.7759 -93.597,51.2343 -157.594,86.2388 -123.5606,67.5841 -177.9978,97.3648 -235.2811,128.7138 -32.6563,17.8716 -75.1068,41.0957 -94.3344,51.6092 -19.2276,10.5134 -61.4283,33.5936 -93.7795,51.2892 -32.3511,17.6956 -88.5356,48.4267 -124.8544,68.2912 -36.3187,19.8647 -72.9724,39.9214 -81.4527,44.5705 -8.4802,4.6491 -15.5691,8.453 -15.7529,8.453 -0.1838,0 -7.4787,-5.5716 -16.2111,-12.3812 z m 2409.6985,-270.3446 c -14.284,-26.0945 -41.5405,-75.9114 -60.57,-110.7042 -19.0294,-34.7927 -43.4854,-79.4906 -54.3465,-99.3285 -21.8189,-39.8529 -39.7545,-72.6384 -74.3739,-135.9526 -12.6827,-23.1951 -28.67,-52.4111 -35.527,-64.9242 -14.0983,-25.7276 -25.3136,-46.2404 -67.6563,-123.7446 -16.3404,-29.9096 -35.3407,-64.6191 -42.2226,-77.1323 -6.8821,-12.5131 -34.3567,-62.7046 -61.0549,-111.5365 -26.6981,-48.832 -55.7874,-102.0199 -64.6427,-118.1955 -8.8554,-16.1756 -29.208,-53.3822 -45.2282,-82.6813 -16.0201,-29.2992 -37.741,-69.0029 -48.2685,-88.2304 -10.5276,-19.2276 -26.6523,-48.6933 -35.8328,-65.4792 -9.1804,-16.786 -23.2526,-42.506 -31.2713,-57.1556 -8.0188,-14.6496 -22.041,-40.2854 -31.1603,-56.9688 l -16.5807,-30.333 -28.8137,-26.2363 c -204.5916,-186.2907 -418.2392,-404.5108 -603.164,-616.0734 -416.0186,-475.9444 -735.3228,-960.093 -950.8552,-1441.7447 -94.0509,-210.1764 -168.6571,-424.6653 -220.6164,-634.2602 -47.7234,-192.5079 -76.1812,-377.4253 -87.1056,-566.0064 -5.5741,-96.2217 -5.7699,-203.6232 -0.526,-288.5523 16.033,-259.6672 77.7207,-507.6106 185.4144,-745.2419 20.9445,-46.2151 61.1715,-124.7152 87.8672,-171.4667 160.4231,-280.94471 385.3482,-523.20446 655.0334,-705.51582 111.0446,-75.06786 235.8877,-142.69346 360.5907,-195.32638 340.7275,-143.80958 715.7913,-195.0163 1087.165,-148.4285 186.2852,23.36897 374.6173,73.48554 546.0298,145.30262 81.8583,34.29637 175.3642,80.82327 249.9141,124.35282 219.2616,128.02661 414.0783,294.43478 574.246,490.50807 219.395,268.57809 368.7535,585.34379 435.9009,924.47719 28.7616,145.2625 41.4568,286.3187 39.7044,441.1521 -1.1784,104.1087 -6.0633,184.2693 -17.4489,286.3327 -49.1439,440.5404 -199.4857,894.0979 -450.4612,1358.9705 -190.7275,353.2772 -442.8439,715.0316 -741.0407,1063.2972 -130.3526,152.2394 -247.5654,278.9986 -394.026,426.1175 l -63.5697,63.8552 35.2301,3.6348 c 318.8097,32.8937 625.1863,100.3644 889.2339,195.8287 271.9215,98.3111 497.6393,224.9101 658.037,369.0752 24.074,21.6377 44.5841,41.5606 43.6972,42.4462 -0.4867,0.4861 -13.1208,7.5729 -28.0756,15.7486 -14.9547,8.1757 -40.6747,22.2484 -57.1555,31.2727 -55.0387,30.1373 -100.5015,55.0168 -159.2587,87.1539 -149.8503,81.9606 -180.2037,98.5657 -241.3851,132.0522 -36.0136,19.7114 -78.464,42.935 -94.3344,51.6081 -53.0163,28.9732 -123.3483,67.4444 -236.391,129.3048 -61.6503,33.7369 -130.8196,71.5814 -153.7096,84.0989 -61.1149,33.421 -214.477,117.3278 -241.1076,131.9136 -12.6658,6.9372 -33.3916,18.2909 -46.0574,25.2303 -12.6658,6.9396 -52.744,28.8569 -89.0628,48.7051 -36.3187,19.8482 -79.0189,43.2025 -94.8893,51.8985 -15.8704,8.6959 -55.8238,30.5275 -88.7853,48.5144 -32.9616,17.987 -61.0363,33.403 -62.3882,34.2578 -1.3519,0.8549 -2.6091,1.5543 -2.7937,1.5543 -0.1847,0 -12.0226,-21.3501 -26.3068,-47.4447 z m -371.859,-3106.6627 c 204.8028,-11.1312 388.8541,-56.2799 574.8842,-141.0227 20.8968,-9.519 78.7253,-38.9003 101.5483,-51.594 169.56,-94.3063 319.3707,-218.3186 443.9178,-367.4722 114.8513,-137.5421 205.7458,-295.5184 267.4415,-464.8181 102.0734,-280.1007 121.1348,-590.0291 54.2643,-882.3042 -11.8736,-51.8967 -23.453,-93.0846 -40.873,-145.386 -43.9581,-131.9779 -103.8963,-254.3293 -181.8622,-371.2336 -113.7462,-170.5541 -262.3862,-319.0056 -434.1264,-433.5761 -210.2877,-140.28603 -451.6715,-226.93218 -704.1787,-252.76927 -89.6547,-9.17363 -191.4124,-10.37623 -281.8934,-3.33156 -331.4992,25.81012 -643.7534,155.79672 -895.622,372.83393 -159.0193,137.0281 -288.012,303.2263 -381.1494,491.0842 -159.5645,321.8413 -202.3632,691.524 -120.9944,1045.115 41.8423,181.8275 118.0748,357.3125 223.5967,514.7129 137.684,205.3743 323.9861,376.5631 541.0188,497.1297 23.0422,12.8004 81.136,42.3286 101.5482,51.6154 59.1307,26.9022 111.7684,47.4983 169.8019,66.4401 142.0315,46.3584 287.7725,71.3851 443.3717,76.136 20.5741,0.6281 97.5722,-0.3784 119.3061,-1.5595 z M 3955.612,3301.8269 c -38.762,-1.6913 -80.8448,-6.2655 -122.6347,-13.3297 -149.9592,-25.3495 -296.8982,-88.6579 -419.5411,-180.7586 -76.5919,-57.5179 -143.6985,-124.8368 -200.2502,-200.8835 -66.318,-89.1797 -118.6173,-192.7687 -150.3659,-297.8282 -68.1737,-225.5955 -53.9824,-465.6385 40.2293,-680.4751 21.8585,-49.8452 49.0452,-99.3689 80.9281,-147.4205 63.4899,-95.6873 143.1399,-179.233 236.0152,-247.559 102.4909,-75.3999 219.9018,-130.6496 341.9563,-160.9132 153.8482,-38.1468 313.0655,-38.9449 466.6921,-2.3391 125.7618,29.9662 246.3681,86.001 351.3755,163.2523 114.2903,84.0805 210.4913,193.6072 278.1764,316.7088 127.674,232.2065 155.9734,504.0182 78.9962,758.7458 -31.746,105.0512 -84.0531,208.6556 -150.3659,297.8282 -47.6978,64.1406 -105.6037,124.7342 -168.0442,175.844 -185.1495,151.5516 -421.564,229.6692 -663.1671,219.1278 z"
       id="path1"
       sodipodi:nodetypes="sssssscsssssssssssssssssssssssssssssssssssssssssssssscssssssssssssssssssssssssssssssssssssssssssssssssssscsssssssssssssssssssscsssssssssssssssssssssssssssssssssssssssssssssssssssssss" />
    <circle
       style="fill:#ff0000;fill-rule:evenodd;stroke:#000000;stroke-width:1.10982"
       id="path2"
       cx="4004.4353"
       cy="2312.3188"
       r="995.66278" />
  </g>
</svg>
